<svg width="20" height="22" viewBox="0 0 20 22" fill="none" xmlns="http://www.w3.org/2000/svg">
<path d="M6.00385 14.168H17.0234C18.2734 14.168 19.2929 13.1484 19.2929 11.8984V7.26171C19.2929 7.25781 19.2929 7.24999 19.2929 7.24609C19.2929 7.23437 19.2929 7.22656 19.2929 7.21484C19.2929 7.20703 19.2929 7.19921 19.289 7.1914C19.289 7.18359 19.2851 7.17187 19.2851 7.16406C19.2851 7.15624 19.2812 7.14843 19.2812 7.14062C19.2773 7.13281 19.2773 7.12499 19.2734 7.11328C19.2695 7.10546 19.2695 7.09765 19.2656 7.08984C19.2617 7.08203 19.2617 7.07421 19.2578 7.0664C19.2538 7.05859 19.2499 7.05078 19.246 7.03906C19.2421 7.03125 19.2382 7.02343 19.2343 7.01953C19.2304 7.01171 19.2265 7.0039 19.2226 6.99609C19.2187 6.98828 19.2148 6.98437 19.2109 6.97656C19.207 6.96874 19.1992 6.96093 19.1953 6.95312C19.1913 6.94531 19.1874 6.9414 19.1796 6.93359C19.1757 6.92578 19.1679 6.92187 19.164 6.91406C19.1601 6.90624 19.1523 6.90234 19.1484 6.89453C19.1445 6.88671 19.1367 6.88281 19.1328 6.8789C19.1249 6.87109 19.121 6.86718 19.1132 6.85937C19.1054 6.85546 19.1015 6.84765 19.0937 6.84375C19.0859 6.83984 19.0781 6.83203 19.0703 6.82812C19.0624 6.82421 19.0585 6.82031 19.0507 6.8164C19.0429 6.81249 19.0351 6.80859 19.0273 6.80078C19.0195 6.79687 19.0117 6.79296 19.0038 6.78906C18.996 6.78515 18.9882 6.78124 18.9804 6.77734C18.9726 6.77343 18.9648 6.76953 18.957 6.76562C18.9492 6.76171 18.9413 6.76171 18.9335 6.75781C18.9257 6.7539 18.914 6.74999 18.9062 6.74999C18.8984 6.74999 18.8906 6.74609 18.8867 6.74609C18.8749 6.74218 18.8671 6.74218 18.8554 6.74218C18.8515 6.74218 18.8476 6.73828 18.8398 6.73828L4.8476 4.78515V2.83594C4.8476 2.81641 4.8476 2.79297 4.84369 2.77734C4.84369 2.77344 4.84369 2.76953 4.83978 2.76172C4.83978 2.75 4.83588 2.73828 4.83588 2.72656C4.83197 2.71484 4.83197 2.70703 4.82806 2.69531C4.82806 2.6875 4.82416 2.68359 4.82416 2.67578C4.82025 2.66406 4.81635 2.65234 4.81244 2.64062C4.81244 2.63672 4.80853 2.62891 4.80853 2.625C4.80463 2.61328 4.80072 2.60547 4.79291 2.59375C4.789 2.58984 4.789 2.58203 4.7851 2.57812C4.78119 2.57031 4.77728 2.5625 4.76947 2.55469C4.76556 2.54687 4.76166 2.54297 4.75775 2.53516C4.75385 2.52734 4.74994 2.52344 4.74603 2.51562C4.74213 2.50781 4.73431 2.5 4.73041 2.49219C4.7265 2.48828 4.7226 2.48437 4.71869 2.48047C4.71088 2.47266 4.70306 2.46484 4.69525 2.45703C4.69135 2.45312 4.68744 2.44922 4.68353 2.44531C4.67572 2.4375 4.66791 2.42969 4.65619 2.42187C4.65228 2.41797 4.64447 2.41406 4.64056 2.41016C4.63275 2.40234 4.62494 2.39844 4.61713 2.39062C4.60541 2.38281 4.59369 2.375 4.58588 2.37109C4.58197 2.36719 4.57806 2.36719 4.57416 2.36328C4.55853 2.35547 4.539 2.34766 4.51947 2.33984L1.4765 1.04297C1.19135 0.921876 0.867127 1.05469 0.749939 1.33984C0.632752 1.625 0.761658 1.94922 1.04681 2.06641L3.73431 3.19922V5.71484V6.11718V9.17577V11.9101V15.3633C3.73431 16.5156 4.5976 17.4687 5.71088 17.6133C5.50775 17.9492 5.39056 18.3437 5.39056 18.7656C5.39056 20.0039 6.39838 21.0039 7.62885 21.0039C8.85932 21.0039 9.86713 19.9961 9.86713 18.7656C9.86713 18.3555 9.75775 17.9648 9.55853 17.6367H14.5468C14.3476 17.9687 14.2382 18.3555 14.2382 18.7656C14.2382 20.0039 15.246 21.0039 16.4765 21.0039C17.707 21.0039 18.7148 19.9961 18.7148 18.7656C18.7148 17.5351 17.707 16.5273 16.4765 16.5273H6.00385C5.36322 16.5273 4.84369 16.0039 4.84369 15.3672V13.8633C5.18353 14.0547 5.58197 14.168 6.00385 14.168ZM8.76556 18.7539C8.76556 19.3789 8.25775 19.8828 7.63666 19.8828C7.01556 19.8828 6.50775 19.375 6.50775 18.7539C6.50775 18.1328 7.01556 17.625 7.63666 17.625C8.25775 17.625 8.76556 18.1328 8.76556 18.7539ZM17.621 18.7539C17.621 19.3789 17.1132 19.8828 16.4921 19.8828C15.871 19.8828 15.3632 19.375 15.3632 18.7539C15.3632 18.1328 15.871 17.625 16.4921 17.625C17.1132 17.625 17.621 18.1328 17.621 18.7539ZM17.0234 13.0586H6.00385C5.36322 13.0586 4.84369 12.5351 4.84369 11.8984V9.16405V6.10546V5.89843L18.1835 7.73437V11.8906C18.1835 12.5391 17.6601 13.0586 17.0234 13.0586Z" fill="black"/>
</svg>
